<?xml version="1.0" standalone="no"?>
<svg xmlns:xlink="http://www.w3.org/1999/xlink" id="wave" style="transform:rotate(0deg); transition: 0.3s" viewBox="0 0 1440 100" version="1.1" xmlns="http://www.w3.org/2000/svg"><defs><linearGradient id="sw-gradient-0" x1="0" x2="0" y1="1" y2="0"><stop stop-color="rgba(125.672, 62, 243, 1)" offset="0%"/><stop stop-color="rgba(130.524, 166.861, 255, 1)" offset="100%"/></linearGradient></defs><path style="transform:translate(0, 0px); opacity:1" fill="url(#sw-gradient-0)" d="M0,0L30,0C60,0,120,0,180,3.3C240,7,300,13,360,25C420,37,480,53,540,65C600,77,660,83,720,85C780,87,840,83,900,68.3C960,53,1020,27,1080,25C1140,23,1200,47,1260,60C1320,73,1380,77,1440,78.3C1500,80,1560,80,1620,73.3C1680,67,1740,53,1800,48.3C1860,43,1920,47,1980,41.7C2040,37,2100,23,2160,30C2220,37,2280,63,2340,75C2400,87,2460,83,2520,81.7C2580,80,2640,80,2700,81.7C2760,83,2820,87,2880,81.7C2940,77,3000,63,3060,48.3C3120,33,3180,17,3240,21.7C3300,27,3360,53,3420,58.3C3480,63,3540,47,3600,36.7C3660,27,3720,23,3780,28.3C3840,33,3900,47,3960,53.3C4020,60,4080,60,4140,58.3C4200,57,4260,53,4290,51.7L4320,50L4320,100L4290,100C4260,100,4200,100,4140,100C4080,100,4020,100,3960,100C3900,100,3840,100,3780,100C3720,100,3660,100,3600,100C3540,100,3480,100,3420,100C3360,100,3300,100,3240,100C3180,100,3120,100,3060,100C3000,100,2940,100,2880,100C2820,100,2760,100,2700,100C2640,100,2580,100,2520,100C2460,100,2400,100,2340,100C2280,100,2220,100,2160,100C2100,100,2040,100,1980,100C1920,100,1860,100,1800,100C1740,100,1680,100,1620,100C1560,100,1500,100,1440,100C1380,100,1320,100,1260,100C1200,100,1140,100,1080,100C1020,100,960,100,900,100C840,100,780,100,720,100C660,100,600,100,540,100C480,100,420,100,360,100C300,100,240,100,180,100C120,100,60,100,30,100L0,100Z"/></svg>